<svg width="19" height="19" viewBox="0 0 19 19" fill="none" xmlns="http://www.w3.org/2000/svg">
<path d="M9.4904 5.80775L5.8462 9.45195L6.8904 10.4961L8.74043 8.64612L8.74042 13.2019L10.25 13.2019L10.25 8.64612L12.1 10.4961L13.1442 9.45195L9.4904 5.80775ZM9.49835 4.68531e-05C10.8123 4.69679e-05 12.0473 0.249381 13.2035 0.748048C14.3596 1.24672 15.3653 1.92346 16.2205 2.7783C17.0757 3.63315 17.7528 4.63839 18.2517 5.79402C18.7506 6.94964 19 8.18442 19 9.49835C19 10.8123 18.7507 12.0473 18.252 13.2034C17.7533 14.3596 17.0766 15.3653 16.2218 16.2205C15.3669 17.0757 14.3617 17.7528 13.206 18.2517C12.0504 18.7506 10.8156 19 9.5017 19C8.18777 19 6.95273 18.7507 5.7966 18.252C4.64045 17.7533 3.63477 17.0766 2.77955 16.2217C1.92431 15.3669 1.24726 14.3617 0.748374 13.206C0.249489 12.0504 4.83992e-05 10.8156 4.85141e-05 9.5017C4.8629e-05 8.18776 0.249383 6.95273 0.74805 5.7966C1.24672 4.64045 1.92347 3.63476 2.7783 2.77955C3.63315 1.92431 4.63839 1.24726 5.79403 0.748372C6.94964 0.249488 8.18442 4.67382e-05 9.49835 4.68531e-05Z" fill="#2ECC71"/>
</svg>
