<svg width="19" height="19" viewBox="0 0 19 19" fill="none" xmlns="http://www.w3.org/2000/svg">
<path d="M9.4904 13.1923L5.8462 9.54805L6.8904 8.50385L8.74043 10.3539L8.74042 5.79808L10.25 5.79808L10.25 10.3539L12.1 8.50385L13.1442 9.54805L9.4904 13.1923ZM9.49835 19C10.8123 19 12.0473 18.7506 13.2035 18.252C14.3596 17.7533 15.3653 17.0765 16.2205 16.2217C17.0757 15.3669 17.7528 14.3616 18.2517 13.206C18.7506 12.0504 19 10.8156 19 9.50165C19 8.18772 18.7507 6.95268 18.252 5.79655C17.7533 4.6404 17.0766 3.63472 16.2218 2.7795C15.3669 1.92427 14.3617 1.24721 13.206 0.748327C12.0504 0.249443 10.8156 7.155e-07 9.5017 8.30368e-07C8.18777 9.45236e-07 6.95273 0.249336 5.7966 0.748002C4.64045 1.24667 3.63477 1.92342 2.77955 2.77825C1.92431 3.6331 1.24726 4.63834 0.748374 5.79398C0.249489 6.94959 4.83992e-05 8.18437 4.85141e-05 9.4983C4.8629e-05 10.8122 0.249383 12.0473 0.74805 13.2034C1.24672 14.3596 1.92347 15.3652 2.7783 16.2205C3.63315 17.0757 4.63839 17.7527 5.79403 18.2516C6.94964 18.7505 8.18442 19 9.49835 19Z" fill="#E74C3C"/>
</svg>
