<svg width="71" height="18" viewBox="0 0 71 18" fill="none" xmlns="http://www.w3.org/2000/svg">
<path d="M22.6406 14.0176L23.5246 11.9766C24.4798 12.6853 25.7487 13.0538 27.0033 13.0538C27.93 13.0538 28.5145 12.6995 28.5145 12.1609C28.5003 10.6585 22.9685 11.8349 22.9258 8.06481C22.9115 6.15142 24.6224 4.67741 27.046 4.67741C28.486 4.67741 29.926 5.03174 30.9525 5.83961L30.1256 7.92307C29.1846 7.3278 28.0155 6.9026 26.9035 6.9026C26.1479 6.9026 25.6489 7.25693 25.6489 7.71048C25.6631 9.18449 31.2376 8.37662 31.2946 11.9766C31.2946 13.9325 29.6266 15.3073 27.2314 15.3073C25.4778 15.3073 23.8667 14.8963 22.6406 14.0176ZM56.5581 11.2396C56.1161 12.005 55.2892 12.5294 54.334 12.5294C52.9226 12.5294 51.782 11.3955 51.782 9.99237C51.782 8.58922 52.9226 7.45536 54.334 7.45536C55.2892 7.45536 56.1161 7.97977 56.5581 8.74512L58.996 7.39867C58.0836 5.78292 56.33 4.67741 54.334 4.67741C51.3828 4.67741 48.9876 7.05851 48.9876 9.99237C48.9876 12.9262 51.3828 15.3073 54.334 15.3073C56.3442 15.3073 58.0836 14.216 58.996 12.5861L56.5581 11.2396ZM32.5207 0.269531H35.5717V15.1089H32.5207V0.269531ZM60.1936 0.269531V15.1089H63.2446V10.6585L66.8659 15.1089H70.7724L66.1673 9.82229L70.4302 4.89H66.6948L63.2446 8.98607V0.269531H60.1936ZM44.6392 11.268C44.1973 11.9908 43.2848 12.5294 42.2583 12.5294C40.8469 12.5294 39.7063 11.3955 39.7063 9.99237C39.7063 8.58922 40.8469 7.45536 42.2583 7.45536C43.2848 7.45536 44.1973 8.02229 44.6392 8.7593V11.268ZM44.6392 4.89V6.09473C44.1402 5.25851 42.8999 4.67741 41.6025 4.67741C38.9222 4.67741 36.8121 7.03016 36.8121 9.97819C36.8121 12.9262 38.9222 15.3073 41.6025 15.3073C42.8999 15.3073 44.1402 14.7262 44.6392 13.89V15.0947H47.6902V4.89H44.6392Z" fill="white"/>
<path d="M3.77753 11.2537C3.77753 12.2883 2.93636 13.1245 1.8956 13.1245C0.854837 13.1245 0.0136719 12.2883 0.0136719 11.2537C0.0136719 10.219 0.854837 9.38281 1.8956 9.38281H3.77753V11.2537ZM4.71849 11.2537C4.71849 10.219 5.55966 9.38281 6.60042 9.38281C7.64118 9.38281 8.48235 10.219 8.48235 11.2537V15.9308C8.48235 16.9655 7.64118 17.8017 6.60042 17.8017C5.55966 17.8017 4.71849 16.9655 4.71849 15.9308V11.2537Z" fill="white"/>
<path d="M6.601 3.74173C5.56024 3.74173 4.71908 2.90551 4.71908 1.87087C4.71908 0.83622 5.56024 0 6.601 0C7.64177 0 8.48293 0.83622 8.48293 1.87087V3.74173H6.601ZM6.601 4.69134C7.64177 4.69134 8.48293 5.52756 8.48293 6.56221C8.48293 7.59685 7.64177 8.43307 6.601 8.43307H1.88193C0.841165 8.43307 0 7.59685 0 6.56221C0 5.52756 0.841165 4.69134 1.88193 4.69134H6.601Z" fill="white"/>
<path d="M14.1423 6.56221C14.1423 5.52756 14.9835 4.69134 16.0242 4.69134C17.065 4.69134 17.9062 5.52756 17.9062 6.56221C17.9062 7.59685 17.065 8.43307 16.0242 8.43307H14.1423V6.56221ZM13.2014 6.56221C13.2014 7.59685 12.3602 8.43307 11.3194 8.43307C10.2787 8.43307 9.4375 7.59685 9.4375 6.56221V1.87087C9.4375 0.83622 10.2787 0 11.3194 0C12.3602 0 13.2014 0.83622 13.2014 1.87087V6.56221Z" fill="white"/>
<path d="M11.3194 14.06C12.3602 14.06 13.2014 14.8962 13.2014 15.9308C13.2014 16.9655 12.3602 17.8017 11.3194 17.8017C10.2787 17.8017 9.4375 16.9655 9.4375 15.9308V14.06H11.3194ZM11.3194 13.1245C10.2787 13.1245 9.4375 12.2883 9.4375 11.2537C9.4375 10.219 10.2787 9.38281 11.3194 9.38281H16.0385C17.0793 9.38281 17.9204 10.219 17.9204 11.2537C17.9204 12.2883 17.0793 13.1245 16.0385 13.1245H11.3194Z" fill="white"/>
</svg>
