<svg width="20" height="20" viewBox="0 0 20 20" fill="none" xmlns="http://www.w3.org/2000/svg">
<path d="M1.50473 7.4389C1.50473 7.4389 1.07753 7.12525 1.59033 6.70651L2.78473 5.61894C2.78473 5.61894 3.12633 5.25315 3.48793 5.57169L14.5087 14.0686V18.1428C14.5087 18.1428 14.5031 18.7823 13.6975 18.7122L1.50473 7.4389Z" fill="white"/>
<path d="M4.34478 10.0645L1.50478 12.6942C1.50478 12.6942 1.21278 12.915 1.50478 13.3101L2.82398 14.5313C2.82398 14.5313 3.13758 14.8734 3.59998 14.484L6.61118 12.159L4.34478 10.0645Z" fill="white"/>
<path d="M9.33098 10.0864L14.5406 6.03589L14.507 1.98294C14.507 1.98294 14.2846 1.09821 13.5422 1.5585L6.60938 7.98375L9.33098 10.0864Z" fill="white"/>
<path d="M13.6958 18.7187C13.9982 19.034 14.3654 18.9305 14.3654 18.9305L18.4254 16.893C18.9454 16.5321 18.8718 16.0849 18.8718 16.0849V3.92032C18.8718 3.3859 18.3342 3.20097 18.3342 3.20097L14.8158 1.47388C14.047 0.989972 13.543 1.56105 13.543 1.56105C13.543 1.56105 14.191 1.0861 14.5078 1.98549V18.0702C14.5078 18.181 14.4846 18.2894 14.4382 18.3871C14.3454 18.5778 14.1446 18.7554 13.6622 18.6804L13.6958 18.7187Z" fill="white"/>
</svg>
