<svg width="485" height="485" viewBox="0 0 485 485" fill="none" xmlns="http://www.w3.org/2000/svg">
<path d="M387.932 0C441.494 0 484.919 43.4245 484.919 96.9873C484.918 123.813 474.025 148.093 456.423 165.648C434.94 187.073 412.181 212.114 412.181 242.454C412.181 272.795 434.941 297.837 456.423 319.264C474.026 336.822 484.918 361.105 484.919 387.932C484.919 441.494 441.494 484.919 387.932 484.919C361.104 484.918 336.819 474.024 319.26 456.419C297.837 434.938 272.798 412.181 242.459 412.181C212.121 412.181 187.082 434.938 165.659 456.419C148.1 474.024 123.815 484.918 96.9873 484.919C43.4245 484.919 0 441.494 0 387.932C0.00207342 334.371 43.4258 290.953 96.9873 290.953C123.816 290.954 148.101 301.848 165.659 319.453C187.082 340.934 212.122 363.691 242.459 363.691C272.797 363.691 297.902 340.81 319.354 319.357C340.807 297.902 363.691 272.795 363.691 242.454C363.691 212.114 340.932 187.074 319.449 165.649C301.846 148.093 290.954 123.813 290.953 96.9873C290.953 43.4258 334.371 0.00207347 387.932 0Z" fill="white"/>
<path d="M388.008 334.275C389.476 363.203 412.675 386.398 441.603 387.862L444.513 387.933C413.269 387.933 387.94 413.265 387.937 444.508C387.935 413.266 362.605 387.933 331.362 387.933C362.606 387.931 387.937 362.601 387.937 331.358L388.008 334.275ZM354.091 433.267C354.816 433.809 355.555 434.332 356.306 434.84L358.6 436.316C357.823 435.845 357.057 435.348 356.306 434.84L354.091 433.267ZM437.684 360.968C438.505 362.48 439.259 364.034 439.942 365.626C439.621 364.879 439.283 364.141 438.932 363.411L437.684 360.968ZM434.853 356.301C435.301 356.963 435.726 357.641 436.145 358.322C435.249 356.866 434.292 355.451 433.271 354.086L434.853 356.301ZM423.929 344.277C424.408 344.673 424.869 345.088 425.335 345.499C424.189 344.488 423.01 343.515 421.784 342.599L423.929 344.277ZM358.6 339.549C357.822 340.022 357.058 340.517 356.306 341.025L354.091 342.599C354.817 342.056 355.553 341.534 356.306 341.025L358.6 339.549Z" fill="#0B132B"/>
</svg>
